/* XPM */
static char *icon[] = {
/* columns rows colors chars-per-pixel */
"48 48 231 2",
"   c #000001",
".  c #00010C",
"X  c #010615",
"o  c #00021B",
"O  c #020815",
"+  c #020B1C",
"@  c #0A131F",
"#  c #000D24",
"$  c #000D28",
"%  c #031127",
"&  c #00122B",
"*  c #091524",
"=  c #09172F",
"-  c #0C1A2C",
";  c #001632",
":  c #041B35",
">  c #041E3A",
",  c #0C1C32",
"<  c #081F39",
"1  c #111C2C",
"2  c #06203C",
"3  c #0A223C",
"4  c #17212F",
"5  c #132236",
"6  c #12263D",
"7  c #182735",
"8  c #19263D",
"9  c #1C2A3B",
"0  c #0C2542",
"q  c #0E2A42",
"w  c #142646",
"e  c #132A44",
"r  c #142E49",
"t  c #1C2C43",
"y  c #192E4A",
"u  c #17304C",
"i  c #1B334D",
"p  c #173250",
"a  c #1D3652",
"s  c #1E3954",
"d  c #222E43",
"f  c #243345",
"g  c #22364D",
"h  c #25394D",
"j  c #2B3C4D",
"k  c #233B55",
"l  c #253E59",
"z  c #2B3D54",
"x  c #293F59",
"c  c #303F54",
"v  c #2D4153",
"b  c #2A435D",
"n  c #304054",
"m  c #30465C",
"M  c #364A5F",
"N  c #394B5D",
"B  c #264461",
"V  c #2C4561",
"C  c #2E4A65",
"Z  c #304761",
"A  c #324A64",
"S  c #354D69",
"D  c #3C4D63",
"F  c #384F6B",
"G  c #36526C",
"H  c #3D5166",
"J  c #3B536C",
"K  c #3F586F",
"L  c #375570",
"P  c #3E5671",
"I  c #3D5974",
"U  c #3D5B78",
"Y  c #435A6F",
"T  c #415771",
"R  c #435A75",
"E  c #455E79",
"W  c #485F7B",
"Q  c #505F6E",
"!  c #45617B",
"~  c #4B637C",
"^  c #4E687F",
"/  c #53687E",
"(  c #5D6774",
")  c #4D6581",
"_  c #4C6984",
"`  c #4E6F89",
"'  c #506681",
"]  c #536C86",
"[  c #546E8B",
"{  c #596F8A",
"}  c #51708A",
"|  c #5B7086",
" . c #5B748D",
".. c #5C7691",
"X. c #5E7992",
"o. c #617A8E",
"O. c #6A7A8B",
"+. c #637B95",
"@. c #647E9A",
"#. c #697A92",
"$. c #658097",
"%. c #66829B",
"&. c #6D8297",
"*. c #6B849C",
"=. c #6F899F",
"-. c #718193",
";. c #76869E",
":. c #798A9E",
">. c #6685A0",
",. c #678AA4",
"<. c #6B86A1",
"1. c #6D8BA5",
"2. c #6D8FAA",
"3. c #728CA2",
"4. c #748EA9",
"5. c #728FB1",
"6. c #7491A6",
"7. c #7591A9",
"8. c #7D91A4",
"9. c #7B95AC",
"0. c #7E99AF",
"q. c #7F97B0",
"w. c #7E9AB2",
"e. c #8197A9",
"r. c #849AAC",
"t. c #8196B2",
"y. c #839DB4",
"u. c #849DB9",
"i. c #8A9DB6",
"p. c #85A1B7",
"a. c #86A3BA",
"s. c #87A8BF",
"d. c #8EA3B3",
"f. c #8AA4BB",
"g. c #91A5B5",
"h. c #90A5BA",
"j. c #92A9BB",
"k. c #9AA5B3",
"l. c #9EAAB7",
"z. c #9AAEBF",
"x. c #A0ADB7",
"c. c #A2AEBB",
"v. c #A6B1BF",
"b. c #8EAAC2",
"n. c #8EB1C8",
"m. c #93ADC5",
"M. c #94AFC9",
"N. c #99AEC4",
"B. c #96B1CA",
"V. c #9AB2C7",
"C. c #9BB5CC",
"Z. c #9FB8CE",
"A. c #97B4D2",
"S. c #9AB4D1",
"D. c #9CBAD2",
"F. c #A7B2C1",
"G. c #A3B7CC",
"H. c #A3BACC",
"J. c #AAB6C4",
"K. c #ADBBC6",
"L. c #AFBCCB",
"P. c #A3BDD4",
"I. c #A4BFD9",
"U. c #ABBDD1",
"Y. c #B0BDCA",
"T. c #A6C2D7",
"R. c #A3C1D9",
"E. c #ABC2D7",
"W. c #ABC5DC",
"Q. c #ACCADD",
"!. c #B2C0CB",
"~. c #B7C6D2",
"^. c #B2C7DC",
"/. c #B4CADC",
"(. c #B9C6D2",
"). c #B9CADC",
"_. c #B9D0DD",
"`. c #A6C3E0",
"'. c #ADCAE2",
"]. c #B2CCE4",
"[. c #B7D1E5",
"{. c #B7D4ED",
"}. c #BED2E4",
"|. c #B9D3E9",
" X c #BDD9EC",
".X c #BFDBF3",
"XX c #C0CDDA",
"oX c #CED7DE",
"OX c #CFD8DF",
"+X c #D2D9DF",
"@X c #C4D3E2",
"#X c #C2D7EB",
"$X c #C2D9E7",
"%X c #C4DBEE",
"&X c #C8D6E5",
"*X c #CADAE5",
"=X c #CBDDEA",
"-X c #C1DCF3",
";X c #C9DFF3",
":X c #C9DFF8",
">X c #D1DAE0",
",X c #D8DFE4",
"<X c #C6E0F4",
"1X c #C6E4FA",
"2X c #CBE3F4",
"3X c #CAE4FB",
"4X c #CEEAFD",
"5X c #D4E4EF",
"6X c #DAE1E6",
"7X c #DAE4ED",
"8X c #D2E6F4",
"9X c #D6EAF7",
"0X c #D4ECFE",
"qX c #DAEAF4",
"wX c #DCEDFD",
"eX c #D7F0FF",
"rX c #DAF3FE",
"tX c #DDFCFF",
"yX c #E6EAEE",
"uX c #E0EBF7",
"iX c #E1EFFA",
"pX c #E9EEF4",
"aX c #E3F0F6",
"sX c #E3F2FE",
"dX c #E5FAFF",
"fX c #ECF2F6",
"gX c #ECF5FD",
"hX c #EBFBFF",
"jX c #F1F6FA",
"kX c #F4FDFF",
"lX c #FEFEFE",
/* pixels */
"=.$...` ` ` ` } ` } ` } } ` } } } } } ` } } } } } ` } } } } } ` } } } } } ` } } } } } } ` ` ..$.",
"$.3.r.d.d.d.d.d.d.d.d.d.d.d.d.d.d.d.d.d.d.d.d.d.d.d.d.d.d.d.d.d.d.d.d.d.d.d.d.d.d.d.d.d.g.g.r.3.",
" .r.!.6X6X*XOX>X>X>XOXOX>X>X>X>X>X>X>X>X>X>X>X>X>X>X>X>X>X>X>X>X>X>X>X>X>X>X>X>X>X>X>X*X6X,X!.r.",
"` g.6XlXlXlXlXlXlXlXlXlXlXlXlXlXlXlXlXlXlXlXlXlXlXlXlXlXlXlXlXlXlXlXlXlXlXlXlXlXlXlXlXlXlXlX6Xg.",
"` g.6XlXlXlXlXlXlXlXlXlXlXlXlXlXlXlXlXlXlXlXlXlXlXlXlXlXlXlXlXlXlXlXlXlXlXlXlXlXlXlXlXlXlXlX6Xg.",
"} d.OXlXlXlXlXlXlXlXlXlXlXlXlXlXlXlXlXlXlXlXlXlXlXlXlXlXlXlXlXlXlXlXlXlXlXlXlXlXlXlXlXjXlXlX>Xd.",
"} d.+XlXlXjXlXlXlXlXlXlXlXlXlXlXlXlXlXlXlXlXkXiX&X(.Y.J.F.c.l.l.x.K.@XwXlXlXlXlXlXlXlXlXlXlX>Xd.",
"} d.+XlXlXlXlXlXlXlXlXlXlXlXlXlXlXlXlXlXlXsX[.f.@.] ~ R T T G V h b | B.0XlXlXlXlXlXlXlXlXlX>Xg.",
"} d.>XlXlXlXlXlXlXlXlXlXlXlXlXlXlXlXlXlX5Xb._ l p s s a a B B y % # p } b. XrXhXkXlXlXlXlXlX>Xd.",
"` d.>XlXlXlXlXlXlXlXlXlXlXlXlXlXlXlXlX8Xq.V > 0 Z ~ [ { +.3.9.#.( Q / ` _ ,.R.4XhXlXlXlXlXlX>Xd.",
"} d.>XlXlXlXlXlXlXlXlXlXlXlXlXlXlXlXiXm.C ; i | j.P.W.].|.<X2X*XoX@X_.a._ K %.R.9XkXlXlXlXlX>Xg.",
"} d.>XlXlXlXlXlXlXlXlXlXlXlXlXlXlXwXm.P 0 Z e.$XrXrXeXeXrXtXhXkXlXlXhX2Xf.! C %.].hXlXlXlXlX>Xg.",
"} d.>XlXlXlXlXlXlXlXlXlXlXlXlXkX8Xf.S 3 A j.qXwX XW.H.V.C.T.<XtXhXkXhXhX2X9.A S 9.;XkXlXlXlX>Xd.",
"} d.>XlXlXlXlXlXlXlXlXlXlXlXkX-Xu.C , z r.2X=Xz.o.R D A H ~ 3.T.;XwXwXdXwXP.] l E m.aXlXlXlX>Xd.",
"} d.>XlXlXlXlXlXlXlXlXlXlXlXeXn.A # f e.#X^.=.H 6 & # ; 0 3 a ~ a. X0X0X3X].3.V s +.&XlXlXlXOXd.",
"` d.>XlXlXlXlXlXlXlXlXlXlXhX].} 3 t :.#X].+.k 2 2 6 v P U b 6 3 G b.1X0X-X'.w.G e I L.lXlXlXOXd.",
"[ d.>XlXlXlXlXlXlXkXlXlXlX<X7.l i &.%X2Xt.b : 3 S *.N.E.H.a.^ q e +.{.rX2XP.7.G u G F.lXlXlXOXd.",
"` d.>XlXlXlXlXlXlXlXlXlXqXy.l : Y E.rXP.^ w : a 3.%XlXlXlXhXP.! 0 R E.hX8XZ.3.G u F F.lXlXlXOXd.",
"` d.>XlXlXlXlXlXlXlXwX).8.J 0 k *.I.C.+.Z e w A w.8XlXlXlXlX9X1.p S G.kX5XN.@.S r S F.lXlXlXOXd.",
"} d.>XlXlXlXlXlXlXhXG._ k b ) 7.f.4.~ V b b A P  .f.).aXlXlX8X7.B I G.dX=Xf.] l e I L.lXlXlXoXd.",
"} d.>XlXlXlXlXlXgXU.] r l %.Q.|.u.E k V E [ ] E G ! +.f.E.).C.%.E @.T.;XE.4.T 0 e ..@XlXlXlX*Xg.",
"` d.>XlXlXlXlX7Xi.R b T 9.].3XR.@.J R ..*. .W G S S I )  .+.%.*.q.C.I.m.4.{ l : b f.gXlXlXlX>Xd.",
"} d.>XlXlXlXpXh.V 2 P m.2X-XC.*.'  .4.w.+.N t t V W ) ~ R R  .y.'.].i...T F y w / XXlXlXlXlX>Xg.",
"} d.>XlXlXlXXX' > i 9.-X-Xs.} !  .u.M.6.N @ . O 8 H | $.*.*.0.P.].M. .C l g p J g.pXlXlXlXlX>Xg.",
"} d.>XlXlXgXi.B y +.W.].t.] ! } y.W.P.o.7       X 4 D 3.b.M.V.P.m.#.S k k k l @.@XlXlXlXlXlX>Xd.",
"} d.,XlXlX}...u F N.-Xm.' E ..9.H.-XQ.o.1           d @.m.V.f.y.3.~ b k Z A C @.}.lXlXlXlXlX>Xd.",
"} d.,XlXlXC.U u ^ P.].7.W ] 3.b.Q.rX Xo.1         . z 3.m.y.3.@...! Z l A T S W i.8XlXlXlXlX>Xd.",
"} d.6XlXkXf.G b #.C.m.@.] *.0.a.T.4XW.~ +     . + j *.B.V.t.*.+...~ V k F ' S a G p.qXlXlXlX>Xd.",
"} d.6XlXjXj.U P =.j.w.+.+.7.y.p.m.C.*.h . . , k E 7.P.'.S.f.9.3.+.W b l T | S < 2 ! ~.lXlXlX>Xd.",
"` d.6XlXjXj.! ! 3.f.9. .+.9.B.M.7._ h O   # A 1.D.].{.W.V.f.y.9.*.W b b W [ F 3 & b l.lXlXlXOXd.",
"} d.6XlXkXj.! P *.p.9. ...t.P.b.^ 5 .     , [ `.0X1X].C.f.u.f.y.<.R x V ~ ' S q ; l k.jXlXlXOXd.",
"` d.6XlXjXd.L V  .p.w...+.f.A.%.f .       8 @.{.0X-XP.m.y.p.b.f.@.S g S ) ) A e > Z c.lXlXlXOXd.",
"` d.6XlXjXe.b r W u.y.3.9.m.4.c O         f 7..X4X{.D.s.y.b.C.y.) i i P { ' Z < & Z F.lXlXlXOXd.",
"[ d.6XlXlXj.C > b <.f.f.b.4.D O           j p.1X4X'.n.p.a.B.b.X.b r b )  .) l & & H Y.lXlXlXOXd.",
"` d.,XlXlX^.[ e e ~ 9.m.w.T *             v s.1X<XD.a.a.m.b.*.S r b ! { ^ G e # 6 o.&XlXlXlX>Xd.",
"` d.,XlXlX0Xw.B ; i  .y.*.z +             D b.-X[.B.b.C.C.3.J r g R | ] P i # & T C.sXlXlXlX>Xd.",
"` d.>XlXlXkX].{ 0 < A  ...R z 8 - +     - [ D.{.R.C.D.S.9.R e r J ] ] R b = o z f.wXlXlXlXlX>Xg.",
"} d.>XlXlXlXuXN.^ i t Z ] @.X.) G k 9 9 H 7.R.'.R.D.M.9.! a i S ) ] E b 6 % t ;.8XlXlXlXlXlX>Xg.",
"} d.>XlXlXlXlXiXC./ t 3 b ` %.<.%...} X.1.a.m.C.n.u.@.I l l J ) ! S l : # t #.$XkXlXlXlXlXlX>Xg.",
"` d.>XlXlXlXlXlXhXH.} i 2 i S )  .%.,.2.1.%.+.+.} G s y k A T L l 3 & + e o.XXlXlXlXlXlXlXlX>Xd.",
"} d.+XlXlXlXlXlXlXhXE.@.b 3 : 6 z Z G J N n z g 6 % % 3 i l i q : $ & e  .^.kXlXlXlXlXlXlXlXOXd.",
"} d.>XlXlXlXjXlXlXlXgX}.9.L 0 & & ; & + O O + o o o & 2 3 ; # ; 2 a S @.W.gXlXlXlXlXlXlXlXlX>Xd.",
"} d.*XlXlXlXlXkXlXlXlXkX-XB.>.! Z k t 5 1 1 , , w l S C s e i S [ 5.A.#XgXlXlXlXlXlXlXlXlXlX>Xd.",
"} d.OXlXlXlXlXlXlXlXlXlXkXwX;X^.N.r.:.-.-.&.O.O.;.t.h.y.;.&.8.z.].:XsXlXlXlXlXlXlXlXjXlXlXlX>Xd.",
"` g.6XlXlXlXlXlXlXlXlXlXlXlXlXlXlXjXfXfXpXpXyXyXpXjXjXjXfXpXfXlXlXlXlXlXlXlXlXlXlXlXlXlXlXlX6Xg.",
"` g.,XlXlXlXlXlXlXlXlXlXlXlXlXlXlXlXlXlXlXlXlXlXlXlXlXlXlXlXlXlXlXlXlXlXlXlXlXlXlXlXlXlXlXlX6Xg.",
" .r.!.6X6X>X>X>X>X>X>X>X+X+X+X>X+X,X,X6X6X6X6X6X,X,X,X,X6X6X,X,X>X+X+X>X>X>X>X>X>X>X>X>X6X6X!.r.",
"$.3.r.g.g.d.d.d.g.g.g.d.d.d.d.d.i.d.d.d.r.d.d.d.r.i.d.d.r.d.i.d.d.d.d.d.d.g.g.d.g.g.g.d.g.g.r.3."
};
