/* XPM */
static char *icon[] = {
/* columns rows colors chars-per-pixel */
"48 48 256 2",
"   c #28251D",
".  c #2A2728",
"X  c #372B28",
"o  c #393827",
"O  c #3D3A3A",
"+  c #383334",
"@  c #382D31",
"#  c #2F4233",
"$  c #3B4F2C",
"%  c #384A3B",
"&  c #3B552F",
"*  c #3D5536",
"=  c #3C5140",
"-  c #43342C",
";  c #48382D",
":  c #4C3C32",
">  c #473B39",
",  c #533936",
"<  c #442529",
"1  c #60313C",
"2  c #4C3F41",
"3  c #503B41",
"4  c #4C4139",
"5  c #425C36",
"6  c #435D3B",
"7  c #475B37",
"8  c #52453B",
"9  c #59453B",
"0  c #584639",
"q  c #575A3E",
"w  c #43542E",
"e  c #49692E",
"r  c #4A633C",
"t  c #4A6838",
"y  c #4E7335",
"u  c #526C3C",
"i  c #55673B",
"p  c #54723B",
"a  c #557938",
"s  c #634B3D",
"d  c #694D3D",
"f  c #4D4646",
"g  c #445A44",
"h  c #455A46",
"j  c #534542",
"k  c #5B4B43",
"l  c #564C48",
"z  c #5B534C",
"x  c #58544D",
"c  c #5D5A53",
"v  c #5F5C5A",
"b  c #5B5551",
"n  c #466242",
"m  c #4C6444",
"M  c #4D644B",
"N  c #4D6945",
"B  c #526C44",
"V  c #536B4C",
"C  c #586947",
"Z  c #566A54",
"A  c #557344",
"S  c #54734B",
"D  c #5A7342",
"F  c #5A744C",
"G  c #5C7A4B",
"H  c #597C46",
"J  c #5B7452",
"K  c #5D7A52",
"L  c #5D745A",
"P  c #644E42",
"I  c #664A48",
"U  c #665144",
"Y  c #64544B",
"T  c #6D5345",
"R  c #6D564B",
"E  c #6B5A4E",
"W  c #64594E",
"Q  c #635B54",
"!  c #6B5C54",
"~  c #675A56",
"^  c #725649",
"/  c #755A4C",
"(  c #7B5D4D",
")  c #745544",
"_  c #735D51",
"`  c #775E55",
"'  c #635F62",
"]  c #646D4B",
"[  c #65635A",
"{  c #6B635C",
"}  c #6C685A",
"|  c #637E4B",
" . c #66744B",
".. c #647B54",
"X. c #657C5B",
"o. c #687757",
"O. c #7B614C",
"+. c #746156",
"@. c #74645B",
"#. c #7C6355",
"$. c #7B655B",
"%. c #7E6A5C",
"&. c #736C5A",
"*. c #777759",
"=. c #6B6562",
"-. c #6D6A63",
";. c #6D6D70",
":. c #6B7966",
">. c #736C64",
",. c #7D6C63",
"<. c #756C68",
"1. c #747165",
"2. c #74736B",
"3. c #7C7266",
"4. c #7C736C",
"5. c #787B69",
"6. c #7B7573",
"7. c #7D7A72",
"8. c #767874",
"9. c #5E833C",
"0. c #638A3B",
"q. c #6C943F",
"w. c #5E8145",
"e. c #618543",
"r. c #648A43",
"t. c #658B4B",
"y. c #6A8D4B",
"u. c #668749",
"i. c #698656",
"p. c #6D9343",
"a. c #6D924C",
"s. c #6E9352",
"d. c #738849",
"f. c #788856",
"g. c #71954E",
"h. c #749A4B",
"j. c #759A47",
"k. c #719555",
"l. c #759A55",
"z. c #799D55",
"x. c #7B995B",
"c. c #6B8364",
"v. c #768767",
"b. c #7F8076",
"n. c #7CA157",
"m. c #7EA061",
"M. c #80543F",
"N. c #855C47",
"B. c #815F50",
"V. c #86654D",
"C. c #826554",
"Z. c #826659",
"A. c #856A56",
"S. c #846A5C",
"D. c #8B6B56",
"F. c #8B6C5C",
"G. c #8C6754",
"H. c #8C755E",
"J. c #85775A",
"K. c #95654A",
"L. c #926E5B",
"P. c #9B6D53",
"I. c #98735D",
"U. c #836D62",
"Y. c #8A6F62",
"T. c #806F68",
"R. c #837165",
"E. c #84746B",
"W. c #847A6C",
"Q. c #8C7264",
"!. c #8C756B",
"~. c #8E7A6D",
"^. c #857A64",
"/. c #837D74",
"(. c #8B7A73",
"). c #887977",
"_. c #937464",
"`. c #927669",
"'. c #947A6B",
"]. c #997563",
"[. c #9C7A66",
"{. c #9B7C6C",
"}. c #957867",
"|. c #957D71",
" X c #9A7E72",
".X c #987E78",
"XX c #A1755B",
"oX c #A77C68",
"OX c #A37F70",
"+X c #848259",
"@X c #81935E",
"#X c #858269",
"$X c #8B817C",
"%X c #878678",
"&X c #879169",
"*X c #8C947A",
"=X c #9E836A",
"-X c #948275",
";X c #93847A",
":X c #9C8275",
">X c #9B857B",
",X c #9C8B7D",
"<X c #988A79",
"1X c #999779",
"2X c #84A465",
"3X c #8AA872",
"4X c #A3826F",
"5X c #A38473",
"6X c #A2867A",
"7X c #A48B7C",
"8X c #AB8976",
"9X c #AB8B7D",
"0X c #A88676",
"qX c #AC917D",
"wX c #A4907F",
"eX c #B58C77",
"rX c #B7937F",
"tX c #B1866D",
"yX c #8A8885",
"uX c #9C8C83",
"iX c #958B86",
"pX c #95928C",
"aX c #9C9886",
"sX c #9B9796",
"dX c #8F958E",
"fX c #88A184",
"gX c #A48E83",
"hX c #AB8E83",
"jX c #A59284",
"kX c #A3948D",
"lX c #A69A8C",
"zX c #AC9283",
"xX c #AB948A",
"cX c #AC9A8C",
"vX c #A69B95",
"bX c #B39485",
"nX c #B2968A",
"mX c #B59B8D",
"MX c #BA9583",
"NX c #BA9C8D",
"BX c #B59D93",
"VX c #A29EA0",
"CX c #ACA696",
"ZX c #BCA08E",
"AX c #B8A79B",
"SX c #A3A48D",
"DX c #A8A5A4",
"FX c #BAADA4",
"GX c #B5AAA5",
"HX c #BBB1AB",
"JX c #B7B6B7",
"KX c #BBBAC0",
"LX c #C2A99A",
"PX c #C5AEA1",
"IX c #CBB4AB",
"UX c #C9BBB4",
/* pixels */
"t.0.0.y w r.0.p.z.n.j.j.j.j.h.g.V.V.N.V.8XMXoXoX].Y.$.$.U.!.(.OX0X6XOXI.[.I X B.L.I.+Xg.a.s.a.y.",
"r.0.0.e.o w r.a.2X2Xn.j.j.z.h.d.V.V.V.4XMXeXoXoX_.Z.~ $.U.U.!..X5X0X5X{.L.- , G.L.L.+Xl.k.l.r.0.",
"r.r.a.s.u   i m.3X3Xn.p.h.n.z.d.D.G.[.MXeXoXoX].F.Z.@.Z.Y.S.Y.`.{.OX5X7XZ.. P G.L.L.J.p.a.a.w.9.",
"a.y.k.k.a.w . | 3X3Xz.p.h.n.p.d.I.[.rXeXoX].].L.Y.Z.T.U.S.F.F.`.{._._.U.+ @ Z.F.I.I.J.r.r.r.r.r.",
"g.k.k.k.k.y.q U +X@Xl.l.z.z.j.d.=XeXeXXXXXI.].Q.Y.!.!.U.Z.Z.Y.L.}.`.@.+ . S.Q.C.L.].J.k.k.a.a.s.",
"p.s.s.s.a.f.H._ T O.J.l.z.z.j.d.=XrXoXI.L.[.OXOX.XOX`.U.` B.B.Y.kXkXf . Y 6X~.A.F.].H.x.z.p.a.l.",
"r.a.y.t.u.f.@.x z ~ #.H.@Xk.p.f.qXeXXXL.OX9X0X6X.X6XOXT.R B.`.BXFX2.. @ R.gX>XS.F.I.H.x.z.q.p.z.",
"t.t.y.r.e.f.Q l { 6.>.,.H.f.p.&XrXtXP._.zXbX9XhXhXhX9X`.` !.AXAXuXb . j ;X,X:X'.S.F.J.g.p.q.p.j.",
"t.t.r.r.e.#Xk j ).sXdX$XU._.f.1XeX].`.nXnXnXhXnXnXnXhXOX~ ~ (..XU.l > R.;X'.'.:XQ.S.J.u.0.0.0.p.",
"y.t.r.r.u.#Xk j ).VXVXsXE.Z.4XqXOXhXBXnXnXnXnXnXnXNXNXOXZ.1 3 ` +.W %.-XR.S.Q.}._.F.*.u.q.0.9.0.",
"t.t.0.9.u.*X! - ' pXVXsXyX,.Y.0XMXZXBXnXhXhXnXnXNXNXMXoXP.N.) ) R %.5X<XR.#.Q.Q.Q.U.*.| a.p.0.r.",
"t.u.y y H &X<.: , ;.sXVXiX/.,.`.hX6X.X.X).)..XOX6X9XOXoXP.K.N.) ) {.:XiXR.#.Q.R.S.H.*.p w.p.q.p.",
"u.w.y e y  .T., < > ~ $X).>.~ _ Z.!.!.!.(.).!._.].oXoX[.P.K.N.N.I.L.'.~.S.A.R.S.S.A.&.p w.r.r.q.",
"w.H a e e C Y , <   @ f <.W k Y I B.B.Y.`.!.T.`._.I.XXoXXXP.K.N.d Y W.F.Z.F.Q.%.#.Z.*.D i.i.w.p.",
"a a H a a | 8 l 3 @ ' b f ~ ' >.U.'.`.Y.Z.U.Y.Q.Z.C.L.[.oXL.) s Q ! S.A.C.G._.S.+.S.S. .i.i.r.t.",
"y y y 9.u.f.} <.3 O 6.$X' =.).4.T.T.U.` ` B.Q._.Q./ B.B.B.` I R @.Q R C.C.C.I.}.#.#.J...i.G G G ",
"9.a a a e.i.#XE.l 2 =.$X).).yX).).U.U.B.F.$.!.[. X$.C.B./ T R @.,.{ R ( #.C.G._.#.( %. .J K K S ",
"H w.w.a a H f.,.f 2 ~ 4.4.E.(.!.E.Z.F.Y._.Y.Y.Y.Y.` Z.Z.C.( $.$.U.,.R $.C.( ( F.F.C.J...K i.G S ",
"S w.p y y a | &.f f 4.!.T.T.,.$.$.Z.F.`.`.Y._._.C.Z.Z.Y._.S.S.$.!.E.I Y / / ( D.J.O.A.*.c.i.A J ",
"S S u e t p p ] ! <.(.(.(.(.E.Y.Y.G.{..XgX6X5X{.C.G._.OX6XhX|.{.|.R.9 I / / ( C.H.#.D.*.u.G H G ",
"N n N t e e * N 4..X.X-X6X7X6X{.L.C.Y.vXhX0XbX{.S.Z.G.8X4XxXE. XgX!.k P ^ / ( C.F.#.A. .y a D | ",
"n * n n r * & * %X>X-X:X X6XqX8XOX`.`.GX XOXrXI./ ) G.8X5X-X!.6XmXgXR s ^ ( ( A.S.O.D.] e e u | ",
"n n N S N n * 5 5.'.{.|.:XhXMXNXNX6XY.BX'.{.0XI.T d ( L.D.,.).uXmXzXU.9 P ( #.A.A.O.J.] e e y F ",
"M M Z V M M g M ^.Q._.:XhXMXeXmXLX.XgXHXxX_.Q.C.P s P P R ).iX.X!.` Y 9 P ^ ) V.A.+.J.o.p i i | ",
"n M Z Z M M h Z ^.#.S.+.E Z.Y.,.E.,.Y ! vXJXgXF.P s P +.yXz > - > ).,.k P ) ) V.A.#.`.*.D u u D ",
"n M Z M = = M c.^.#.%.-X(.`.xXyX+.,.8 0 b KXGXQ.T P U E.8.: 0 0 W yX!.j P s d ) C.+.^.^.t t i i ",
"Z Z h = = Z Z b.-XS.Q.mXLXZX5XvX} A.F.9 . sXUX'._ R T (.' X 0 Q 6.U.$.4 s , 0 ) #.J.S.J.C C q q ",
"Z = = = M L L c.*X}.5XjXxXqX[.Q.yX@.~ 2 3 ).UX6XY.` _ U.-.Q 8.).U._ U : : : 0 d ( %.%.Q.*.} ]  .",
"= * % = M Z M Z 5.jXqX-X,XwX}.C.S.uXDXUXGXU..XOX|.U.$.` ! sXkX'.#./ 0 ; ; ; 0 d ) +.#.'.<X<X1XlX",
"# * = = M M n n C %XJ.>XwX<X'.`.Y.F. XBXBX` B..XuX!.!.!._ $.Z.` U q : o o < ; s ) #._ H.wXcXAXFX",
"n N Z M V V N V r } 3.W.^.:X(.S.S.S.Q.{.`.B.Y.hXxXkXBXxXU.T ` Y U 4 o - < - ; 0 d +.3.`.cXAXFXFX",
"S S K J V N V S V J *.3.W.;X,X,XR.Z.'.6X`.F.OXnXBXGXGXBX|.^ $.@.W ; X ; ; ; : : s ^ { Q.jXCXCXGX",
"S S A S V V m V L M M yXsXpXSXCXvX>X7XhX}.L._.bXLXPXIXPX XI #.,.b j 8 : 4 : 0 0 s s k #.jXGXHXGX",
"S S N N L M * M L g * M 8.dXGXDXGXHXBX5X{._.` 0XZXIXIXPX6X+.S.>.c l 8 : 4 0 s 0 s @.@.S.jXHXHXHX",
"J K V Z :.Z h L X.J M Z 8.sXDXJXJXKXkX`.5XxX:X0XNXBXvX.X`.E.4.7.x z 4 8 8 k U 0 s >.3.R.uXGXGXHX",
"S K K c.c.J F F B M M Z :.sXDXJXJXJXGXsXkXkXBXxX.X@.I j W ).6.6.c c 8 l k U E 9 R } >.).kXCXAXFX",
"N S K i.K G B A B V V :.c.pXsXDXJXJXJXDXVXsXDXJX' X < @ ;.yX7.[ z W [ W Y ! +.E { =.{ E.lXFXHXFX",
"6 n N S G ..F A F B V Z L $XuXpXpXDXpXdXsXsXDXKXdXO . l yX6.-.c z c { } { @.@.@.@.~ x { ,XCXHXGX",
"6 * 5 t H S F F X.L V V Z b.uX$X/.pXVX=.v ;.yXdX).l 2 <.2.-.{ b 4 f } >.>.@.+.@.T.>.=.>.<XlXSXvX",
"& & & t N u u B c.i.F ..J 5.uXuXpXdXsXyXf O v 2 @ . < <./.6.-.[ x x } } { E E @.Q.3.-.E.uXlXlXCX",
"5 $ $ 6 r u A G c.i.......&.aXkXpXpXiXVX8.+ O > 3 1 I 7.7.7.2.4.2.>.>.{ W ! { ! T.3.W @.-X5.,XUX",
"5 r m F G | i.u.c... .m B } aXvXiXiXyXyXVX;.O + 3 I ~ 2.7.%X/.7.7.1.-.{ { -.>.{ ! R.c ! -X;XcXUX",
"5 B G G D F D ..X.X.F x C 5.gX;X/./.7.7.yXVXyX:.-.;.2.} 5./.%X/.7.{ c c =.=.=.Q ~ E.Q E wXAXLXPX",
"J ....u p A r C i.X.o.C C 5. X|.R.W.4.2.2.b.b.b.2.-.[ -.2.%X%X7.1.} v b -.-.Q b @.E.Q ! jXLXPXAX",
"J G A u i u t B X.X.5.:. .J.[.,XuXuX;X3.1.-.=.Z Z [ { 2.7.7.7.2.} [ -.[ <.<.x z @.R.[ J.1XSXCXAX",
"F S F F u t 7 6 J o.:.o.] #X4XgXCXkX<XW.1.[ v c c ~ -./.%X/.7.>.} Q [ -.} -.x l W @.E H.SXfX3XSX",
"6 m J J i e 7 h ..v.v.5.o.*XzXjXGXkX;XW.1.[ x x c { >.).$XW./.2.2.1.} >.-.2.v j k +.E H.aXfXv.s.",
"5 r C m 7 r C F f.%X*X*XaXCX9X-XAXkX;X~.3.[ l l x } 3.$X$X@.W.-.2.7.1.-.>.7.c > U S.R H.*Xv.f.u."
};
